<!DOCTYPE svg PUBLIC "-//W3C//DTD SVG 1.1//EN" "http://www.w3.org/Graphics/SVG/1.1/DTD/svg11.dtd">
<!-- Uploaded to: SVG Repo, www.svgrepo.com, Transformed by: SVG Repo Mixer Tools -->
<svg height="800px" width="800px" version="1.1" id="_x32_" xmlns="http://www.w3.org/2000/svg" xmlns:xlink="http://www.w3.org/1999/xlink" viewBox="-51.2 -51.2 614.40 614.40" xml:space="preserve" fill="#3d3d3d" stroke="#3d3d3d" stroke-width="10.24" transform="matrix(1, 0, 0, 1, 0, 0)">
<g id="SVGRepo_bgCarrier" stroke-width="0">
<path transform="translate(-51.2, -51.2), scale(19.2)" d="M16,31.607488749755753C18.92259929719879,31.554162591105033,19.263339470061023,26.93801487711885,20.9277035055889,24.535032836315246C21.882019402723326,23.15720688410998,22.881859662860425,21.908569980953068,23.722143730074286,20.458381761279373C24.563735408182982,19.005936826299987,25.70155167922448,17.669856644034226,25.873166451851528,16C26.05194896616165,14.260399353809234,25.062788989186352,12.689102740662417,24.696343428121793,10.979163780808452C24.156335271663966,8.459332505779114,25.292023522690837,5.0339318408369245,23.20046688864629,3.528425510647244C21.191780975414055,2.0825696784357404,18.421091899308205,4.2060684470485645,16,4.719519711203045C14.06476739404776,5.12993272701755,12.088538214001126,5.268651398993522,10.370454333722595,6.249340882478339C8.647306392923683,7.2329209529438465,7.541090738952745,8.888578189432705,6.175119588610617,10.327602649728451C4.400445377459673,12.197187961440655,1.4077827902925448,13.438950135831218,1.1147957824998436,15.999999999999996C0.827924792962597,18.507588695906083,2.8951494183143174,20.802297126399335,4.785476979150054,22.47470788492096C6.455625201149722,23.952321560279486,9.23824864109435,23.308624240388777,10.9673702162173,24.716770481195997C13.211060954641798,26.543966858999436,13.106903358727132,31.660276598788716,16,31.607488749755753" fill="#FFD154" strokewidth="0"/>
</g>
<g id="SVGRepo_tracerCarrier" stroke-linecap="round" stroke-linejoin="round"/>
<g id="SVGRepo_iconCarrier"> <style type="text/css"> .st0{fill:#ffffff;} </style> <g> <path class="st0" d="M259.031,156.638c-0.009-8.693-0.009-16.24,1.061-23.4l-6.258,7.169 c-10.95,12.627-38.637,20.788-61.835,18.237c-23.215-2.561-33.138-14.859-22.179-27.494l82.473-86.306 c1.601-1.684,2.055-4.161,1.138-6.301c-0.91-2.123-3.016-3.521-5.341-3.521h-13.283c-3.892,0-7.614,1.55-10.336,4.33 l-71.548,72.499c-14.681,15.365-13.999,23.898-13.999,47.802c0,17.066,0,276.892,0,276.892c0,20.494,25.758,37.417,48.964,39.96 c23.207,2.57,54.996-5.61,65.946-18.228l7.287-8.474c-1.306-4.228-2.089-8.642-2.089-13.258V156.638z"/> <path class="st0" d="M120.113,156.638c-0.009-8.693-0.009-16.24,1.062-23.4l-6.267,7.169 c-10.95,12.627-38.629,20.788-61.835,18.237c-23.207-2.561-33.138-14.859-22.179-27.494l82.481-86.306 c1.591-1.684,2.054-4.161,1.137-6.301c-0.91-2.123-3.016-3.521-5.34-3.521H95.879c-3.883,0-7.597,1.55-10.326,4.33l-71.548,72.499 c-14.682,15.365-14,23.898-14,47.802c0,17.066,0,276.892,0,276.892c0,20.494,25.75,37.417,48.965,39.96 c23.197,2.57,54.988-5.61,65.938-18.228l7.303-8.474c-1.314-4.228-2.098-8.642-2.098-13.258V156.638z"/> <path class="st0" d="M506.197,35.022h-14.379c-4.195,0-8.188,1.82-10.951,4.978l-87.51,100.406 c-10.95,12.627-38.638,20.788-61.835,18.237c-23.215-2.561-33.137-14.859-22.179-27.494l82.473-86.306 c1.601-1.684,2.055-4.161,1.145-6.301c-0.918-2.123-3.024-3.521-5.34-3.521H374.33c-3.883,0-7.607,1.55-10.336,4.33l-71.548,72.499 c-14.682,15.365-13.999,23.898-13.999,47.802c0,17.066,0,276.892,0,276.892c0,20.494,25.758,37.417,48.964,39.96 c23.214,2.57,54.996-5.61,65.946-18.228L501.454,332.72c6.806-7.918,10.546-17.992,10.546-28.42V40.826 C512,37.625,509.397,35.022,506.197,35.022z"/> </g> </g>
</svg>